HIERARCHY
ROOT RootJoint
{
    OFFSET   0.000000   0.000000   0.000000
    CHANNELS 6 Xposition Yposition Zposition Xrotation Yrotation Zrotation
    JOINT pelvis_lowerback
    {
        OFFSET   0.000000   0.093605   0.000000
        CHANNELS 3 Xrotation Yrotation Zrotation
        JOINT lowerback_torso
        {
            OFFSET   0.000000   0.100000   0.000000
            CHANNELS 3 Xrotation Yrotation Zrotation
            JOINT torso_head
            {
                OFFSET   0.000000   0.282350   0.000000
                CHANNELS 3 Xrotation Yrotation Zrotation
                End Site
                {
                    OFFSET   0.000000   0.192650   0.000000
                }
            }
            JOINT rTorso_Clavicle
            {
                OFFSET  -0.001000   0.157500   0.000000
                CHANNELS 3 Xrotation Yrotation Zrotation
                JOINT rShoulder
                {
                    OFFSET  -0.117647   0.000000   0.000000
                    CHANNELS 3 Xrotation Yrotation Zrotation
                    JOINT rElbow
                    {
                        OFFSET  -0.245000   0.000000   0.000000
                        CHANNELS 3 Xrotation Yrotation Zrotation
                        JOINT rWrist
                        {
                            OFFSET  -0.240000   0.000000   0.000000
                            CHANNELS 3 Xrotation Yrotation Zrotation
                            End Site
                            {
                                OFFSET  -0.116353  -0.002500   0.000000
                            }
                        }
                    }
                }
            }
            JOINT lTorso_Clavicle
            {
                OFFSET   0.001000   0.157500   0.000000
                CHANNELS 3 Xrotation Yrotation Zrotation
                JOINT lShoulder
                {
                    OFFSET   0.117647   0.000000   0.000000
                    CHANNELS 3 Xrotation Yrotation Zrotation
                    JOINT lElbow
                    {
                        OFFSET   0.245000   0.000000   0.000000
                        CHANNELS 3 Xrotation Yrotation Zrotation
                        JOINT lWrist
                        {
                            OFFSET   0.240000   0.000000   0.000000
                            CHANNELS 3 Xrotation Yrotation Zrotation
                            End Site
                            {
                                OFFSET   0.116353  -0.002500   0.000000
                            }
                        }
                    }
                }
            }
        }
    }
    JOINT rHip
    {
        OFFSET  -0.100000  -0.051395   0.000000
        CHANNELS 3 Xrotation Yrotation Zrotation
        JOINT rKnee
        {
            OFFSET   0.000000  -0.410000   0.000000
            CHANNELS 3 Xrotation Yrotation Zrotation
            JOINT rAnkle
            {
                OFFSET   0.000000  -0.390000   0.000000
                CHANNELS 3 Xrotation Yrotation Zrotation
                JOINT rToeJoint
                {
                    OFFSET   0.000000  -0.050000   0.130000
                    CHANNELS 3 Xrotation Yrotation Zrotation
                    End Site
                    {
                        OFFSET  -0.010000   0.002000   0.060000
                    }
                }
            }
        }
    }
    JOINT lHip
    {
        OFFSET   0.100000  -0.051395   0.000000
        CHANNELS 3 Xrotation Yrotation Zrotation
        JOINT lKnee
        {
            OFFSET   0.000000  -0.410000   0.000000
            CHANNELS 3 Xrotation Yrotation Zrotation
            JOINT lAnkle
            {
                OFFSET   0.000000  -0.390000   0.000000
                CHANNELS 3 Xrotation Yrotation Zrotation
                JOINT lToeJoint
                {
                    OFFSET   0.000000  -0.050000   0.130000
                    CHANNELS 3 Xrotation Yrotation Zrotation
                    End Site
                    {
                        OFFSET   0.010000   0.002000   0.060000
                    }
                }
            }
        }
    }
}
MOTION
Frames: 14
Frame Time:   0.008333
 -2.376719   0.925631   3.975860   0.000000   0.000000   0.000000   0.000000   0.000000   0.000000   0.000000   0.000000   0.000000   0.000000   0.000000   0.000000   0.000000   0.000000   0.000000   0.000000   0.000000   0.000000   0.000000   0.000000   0.000000   0.000000   0.000000   0.000000   0.000000   0.000000   0.000000   0.000000   0.000000   0.000000   0.000000   0.000000   0.000000   0.000000   0.000000   0.000000   0.000000   0.000000   0.000000   0.000000   0.000000   0.000000   0.000000   0.000000   0.000000   0.000000   0.000000   0.000000   0.000000   0.000000   0.000000   0.000000   0.000000   0.000000   0.000000   0.000000   0.000000   0.000000   0.000000   0.000000
 -2.376958   0.926208   3.975537   0.467147   0.107285  -0.251304  -0.568292  -0.049136   0.195513   0.079791  -0.155841   0.093972  -0.164034   0.122711   0.053318   0.298279  -0.253948   0.380124   0.971063   0.347187   2.005155   0.008688   0.408733  -0.004473   0.356578  -0.246955  -2.744892   0.201682   0.445377  -0.423662   1.200914  -0.160497  -1.996762   0.020086  -0.959820   0.011692   0.418125   0.270134   2.698524  -0.722208   0.062062   0.211341   0.539275   0.000187   0.000811  -0.370633  -0.245818  -0.028322  -0.357498  -0.000208   0.000228  -0.972081  -0.246009   0.420306   1.376635  -0.002079  -0.001582  -0.998328   0.107407  -0.015197   0.300118  -0.000406  -0.000072
 -2.377260   0.927185   3.975370   0.889166   0.170676  -0.536949  -1.114274  -0.085039   0.396479   0.146708  -0.297998   0.219467  -0.325857   0.238639   0.114500   0.588961  -0.461785   1.487327   1.915629   0.749315   4.591408   0.020117   0.808246  -0.007686   0.746083  -0.378180  -4.756113   0.407843   0.849122  -1.553550   2.374046  -0.384531  -4.567087   0.046150  -1.885026   0.020114   0.879573   0.298740   4.682399  -1.401751   0.128745   0.378530   1.078584   0.000715   0.001296  -0.719181  -0.475317  -0.055781  -0.723568  -0.000630   0.000464  -1.850881  -0.488354   0.969293   2.800727  -0.005114  -0.003125  -1.926109   0.210848  -0.025666   0.558728  -0.000910  -0.000187
 -2.377556   0.928152   3.975348   1.283734   0.206868  -0.815923  -1.645006  -0.118947   0.586931   0.193804  -0.428469   0.348222  -0.480698   0.346580   0.172736   0.863810  -0.626711   3.037084   2.824259   1.207550   7.557174   0.031342   1.186282  -0.009736   1.123001  -0.452590  -5.927662   0.610415   1.202083  -3.109429   3.514145  -0.677731  -7.509846   0.071506  -2.753431   0.025659   1.326634   0.254379   5.848132  -2.043313   0.190330   0.464263   1.583440   0.001437   0.001507  -1.045655  -0.690099  -0.083104  -1.070239  -0.001172   0.000670  -2.630411  -0.723830   1.576246   4.159842  -0.008253  -0.004219  -2.790749   0.308863  -0.032962   0.794626  -0.001411  -0.000290
 -2.377830   0.928816   3.975443   1.658187   0.228092  -1.080394  -2.158787  -0.155458   0.766915   0.221454  -0.552382   0.473855  -0.628561   0.447073   0.226677   1.124230  -0.760699   4.833702   3.695649   1.722331  10.774947   0.041056   1.542561  -0.010935   1.486139  -0.487978  -6.478621   0.810305   1.512841  -4.903072   4.622569  -1.044559 -10.700334   0.093260  -3.567054   0.029151   1.755367   0.175051   6.406646  -2.652867   0.247494   0.472669   2.051624   0.002212   0.001559  -1.351404  -0.891333  -0.110337  -1.395632  -0.001747   0.000814  -3.325750  -0.952292   2.216350   5.441663  -0.011129  -0.004812  -3.597943   0.401316  -0.037823   1.005592  -0.001837  -0.000356
 -2.378079   0.928962   3.975635   2.014546   0.239991  -1.329217  -2.653461  -0.195974   0.937403   0.233177  -0.672316   0.595132  -0.768796   0.540669   0.276764   1.371186  -0.873020   6.747634   4.527902   2.291429  14.158054   0.048728   1.877172  -0.011527   1.835457  -0.496256  -6.612891   1.007071   1.789050  -6.809288   5.698134  -1.485364 -14.053084   0.110331  -4.328711   0.031204   2.165586   0.073957   6.555763  -3.232626   0.301518   0.415339   2.485326   0.002945   0.001517  -1.637607  -1.079800  -0.137320  -1.699380  -0.002286   0.000895  -3.947864  -1.173419   2.876123   6.647506  -0.013574  -0.004988  -4.351676   0.488333  -0.040709   1.194178  -0.002169  -0.000388
 -2.378348   0.928415   3.975902   2.353305   0.245594  -1.559704  -3.127535  -0.240011   1.091838   0.232760  -0.788626   0.697053  -0.901051   0.627759   0.327701   1.605871  -0.970550   8.701426   5.318836   2.911912  17.653702   0.054258   2.190503  -0.011694   2.170577  -0.486643  -6.471871   1.201874   2.037503  -8.795291   6.685524  -1.973399 -17.363709   0.122162  -5.042538   0.031913   2.559365  -0.051257   6.362503  -3.783798   0.353289   0.305239   2.887325   0.003568   0.001423  -1.905460  -1.256275  -0.163940  -1.982253  -0.002742   0.000925  -4.505389  -1.386915   3.546920   7.781037  -0.015559  -0.004851  -5.055471   0.570057  -0.042028   1.363166  -0.002410  -0.000393
 -2.378496   0.926493   3.975883   2.551417   0.240873  -1.668000  -3.315558  -0.260675   1.184221   0.183576  -0.880791   0.699267  -1.171180   0.578712   0.301740   1.811525  -0.902476   9.968043   6.133255   3.604669  21.284592   0.060785   2.588228  -0.013235   2.433252  -0.542917  -5.394628   1.353525   2.221577 -10.035876   7.493294  -2.642200 -20.659293   0.124210  -5.683477   0.031527   2.900150  -0.212779   5.212676  -4.178443   0.214794   0.063770   3.249108   0.003943   0.000649  -1.977979  -1.517179  -0.046302  -2.016983  -0.002269   0.000856  -4.847191  -1.482395   4.036767   8.461048  -0.014833  -0.003833  -5.927258   0.751550   0.024284   1.566904  -0.002729  -0.000065
 -2.378604   0.923398   3.975653   2.740463   0.256812  -1.752617  -3.454111  -0.278713   1.267026   0.146414  -0.963431   0.690088  -1.430175   0.527685   0.261197   1.979002  -0.766936  11.009086   6.837009   4.343099  24.582371   0.063844   2.979546  -0.014405   2.701825  -0.500524  -4.323080   1.473002   2.331871 -11.013970   8.197306  -3.343682 -23.611100   0.121552  -6.298425   0.030785   3.231560  -0.446529   4.135805  -4.549897   0.074028  -0.188961   3.585044   0.004119   0.000108  -2.041655  -1.764455   0.062319  -2.021433  -0.001825   0.000698  -5.213973  -1.570242   4.463441   9.028782  -0.013649  -0.002888  -6.748880   0.920950   0.088861   1.723158  -0.002738   0.000164
 -2.378684   0.919234   3.975320   2.919494   0.287054  -1.831747  -3.560933  -0.289697   1.350599   0.118675  -1.035007   0.687695  -1.669154   0.480028   0.219456   2.112892  -0.597340  11.882518   7.442289   5.094965  27.584290   0.064290   3.357366  -0.015133   2.967845  -0.390825  -3.428781   1.565898   2.398086 -11.808618   8.810975  -4.050112 -26.273939   0.115882  -6.882890   0.029609   3.553430  -0.727014   3.271469  -4.888568  -0.056120  -0.430466   3.896929   0.004140  -0.000232  -2.100468  -1.995547   0.163327  -2.022044  -0.001461   0.000560  -5.598599  -1.656253   4.849890   9.532121  -0.012339  -0.002085  -7.517351   1.077740   0.151248   1.863378  -0.002641   0.000331
 -2.378663   0.918207   3.975325   3.000377   0.230510  -1.330150  -3.636319  -0.244209   0.970484   0.114707  -1.058751   0.504131  -1.884281   0.437460   0.164483   2.219029  -0.398785  12.929433   7.952867   5.859101  30.455593   0.063952   3.718505  -0.015239   3.227496  -0.260018  -2.705711   1.652101   2.459520 -12.655537   9.353368  -4.727622 -28.729617   0.109311  -7.417344   0.027883   3.858191  -0.939974   2.659458  -5.098952  -0.161751  -1.169020   4.193998   0.003901  -0.000781  -2.144781  -2.214073   0.254601  -1.942682  -0.001054   0.000154  -6.215025  -1.703977   4.315349  10.600333  -0.009855  -0.002513  -7.876166   1.180265  -0.032729   1.425776  -0.002883   0.000297
 -2.379177   0.918218   3.975578   3.079730   0.261033  -1.370696  -3.734752  -0.247804   1.082293   0.101544  -1.107675   0.483937  -2.084390   0.395903   0.111364   2.320087  -0.223156  13.794372   8.398521   6.587190  33.095246   0.062029   4.057821  -0.014957   3.475120  -0.098415  -1.965544   1.730869   2.508356 -13.453509   9.826502  -5.400193 -31.074095   0.102064  -7.928838   0.025805   4.150861  -1.200215   1.987388  -5.312715  -0.143660  -1.111038   4.492684   0.003072  -0.000507  -2.209818  -2.261448   0.457617  -1.869950  -0.000982   0.000121  -6.637479  -1.751150   4.384452  11.349505  -0.008172  -0.001734  -8.384560   1.327441  -0.004656   1.626696  -0.002419   0.000542
 -2.379747   0.918236   3.975922   3.175260   0.363654  -1.400694  -3.843096  -0.262415   1.159645   0.071539  -1.165464   0.493034  -2.275366   0.356858   0.075825   2.414737  -0.064136  14.523204   8.786019   7.280786  35.529562   0.058866   4.375680  -0.014475   3.710185   0.071757  -1.271090   1.798351   2.547651 -14.102808  10.242045  -6.046465 -33.218275   0.093912  -8.411425   0.023510   4.429954  -1.490934   1.346994  -5.509800  -0.166208  -1.059262   4.762747   0.002395  -0.000219  -2.303517  -2.361610   0.566609  -1.853297  -0.000805   0.000094  -6.999541  -1.808656   4.443944  11.944604  -0.006740  -0.000894  -8.911337   1.457928   0.043948   1.805802  -0.002067   0.000766
 -2.380330   0.918349   3.976274   3.273805   0.418605  -1.436545  -3.873459  -0.224088   1.158910  -0.002980  -1.157136   0.605668  -2.458124   0.268994   0.058053   2.499499   0.001161  14.803040   9.156419   7.982000  37.412555   0.055065   4.761403  -0.014636   3.910055   0.433448   0.185551   1.893180   2.542935 -14.298871  10.581808  -6.774695 -35.057171   0.084094  -8.887240   0.021650   4.698024  -1.865188   0.134044  -5.523792  -0.207545  -0.996079   4.645653   0.001948  -0.000194  -2.258795  -2.419568   0.647901  -1.675275  -0.000818   0.000015  -7.220396  -1.820658   4.513915  12.238519  -0.005480  -0.000510  -9.191795   1.566585   0.136277   1.904202  -0.001762   0.000767
